<svg width="40" height="40" viewBox="0 0 40 40" fill="none" xmlns="http://www.w3.org/2000/svg">
<path d="M38.0928 0.506592H1.90639C1.03615 0.506592 0.333069 1.20967 0.333069 2.07991V38.2663C0.333069 39.1365 1.03615 39.8396 1.90639 39.8396H38.0928C38.963 39.8396 39.6661 39.1365 39.6661 38.2663V2.07991C39.6661 1.20967 38.963 0.506592 38.0928 0.506592ZM33.5498 11.9869H30.4081C27.9448 11.9869 27.4679 13.1571 27.4679 14.8779V18.6686H33.3482L32.5812 24.603H27.4679V39.8396H21.3369V24.6079H16.2089V18.6686H21.3369V14.2928C21.3369 9.21394 24.4393 6.44588 28.9724 6.44588C31.1456 6.44588 33.009 6.60813 33.5547 6.68188V11.9869H33.5498Z" fill="white"/>
</svg>
